# xmcd
#
# Track frame offsets: 
#        150
#        13140
#        27125
#        39849
#        52456
#        66125
#        77977
#        91483
#        103591
#        118049
#        132417
#        146038
#        160452
#        174919
#        186350
#        199909
#        212034
#        224881
#        239077
#        254036
#        269026
#        281022
#        296259
#        307567
#        321545
#
# Disc length: 4480 seconds
#
# Revision: 2
# Processed by: cddbd v1.5.2PL0 Copyright (c) Steve Scherf et al.
# Submitted via: ExactAudioCopyFreeDBPlugin 1.0
#
DISCID=96117e19
DTITLE=Various Artist - When the Levee Breaks:  Mississippi Blues Rar
DTITLE=e Cuts, 1926-1941 [JSP Records]
DYEAR=2007
DGENRE=Blues
TTITLE0=Garfield Akers - Cottonfield Blues, Part 1
TTITLE1=Jim Thompkins - Bedside Blues
TTITLE2=Kid Bailey - Mississipi Bottom Blues
TTITLE3=Sam Butler - Poor Boy Blues
TTITLE4=William Harris - I'm Leavin' Town
TTITLE5=Mississippi Jook Band - Hittin' the Bottle Stomp
TTITLE6=Geeshie Wiley - Last Kind Word Blues
TTITLE7=Blind Willie Reynolds - Third Street Woman Blues
TTITLE8=Freddie Spruell - Muddy Water Blues
TTITLE9=Joe Calicott - Fare Thee Well Blues
TTITLE10=Arthur Petties - That Won't Do
TTITLE11=Willie "61" Blackwell - Four O'Clock Flower Blues
TTITLE12=Joe McCoy - Evil Devil Woman Blues
TTITLE13=Sam Collins - The Jail House Blues
TTITLE14=Robert Lockwood - Black Spider Blues
TTITLE15=Robert Johnson - Traveling Riverside Blues (take 1)
TTITLE16=Charlei McCoy - Baltimore Blues
TTITLE17=Mattie Delaney - Down the Big Road Blues
TTITLE18=Mississippi Bracey - You Scolded Me and Drove Me
TTITLE19=Freddie Spruell - Milk Cow Blues
TTITLE20=Mose Andrews - Ten Pound Hammer
TTITLE21=Willie "61" Blackwell - Noiseless Motor Blues
TTITLE22=Buddy Boy Hawkins - Jailhouse Fire Blues
TTITLE23=Freddie Spruell - 4A Highway
TTITLE24=King Solomon Hill - Times Has Done Got Hard
EXTD=
EXTT0=
EXTT1=
EXTT2=
EXTT3=
EXTT4=
EXTT5=
EXTT6=
EXTT7=
EXTT8=
EXTT9=
EXTT10=
EXTT11=
EXTT12=
EXTT13=
EXTT14=
EXTT15=
EXTT16=
EXTT17=
EXTT18=
EXTT19=
EXTT20=
EXTT21=
EXTT22=
EXTT23=
EXTT24=
PLAYORDER=
